<svg width="192" height="149" viewBox="0 0 192 149" fill="none" xmlns="http://www.w3.org/2000/svg">
<g filter="url(#filter0_d_54_173)">
<g filter="url(#filter1_ii_54_173)">
<path d="M156.652 95.4205C136.723 112.143 97.5721 117.286 75.4172 118.869C66.9259 119.475 60.5778 111.91 62.6495 103.653C68.0548 82.1092 79.919 44.4458 99.8478 27.7236C118.095 12.4123 145.604 15.1545 161.29 33.8485C176.976 52.5425 174.9 80.1092 156.652 95.4205Z" fill="url(#paint0_linear_54_173)"/>
</g>
<g filter="url(#filter2_f_54_173)">
<path d="M152.185 93.495C134.217 108.572 98.9163 113.21 78.9408 114.637C71.2847 115.183 65.561 108.362 67.4289 100.917C72.3026 81.4931 82.9997 47.5345 100.968 32.4572C117.421 18.652 142.223 21.1245 156.366 37.9796C170.509 54.8347 168.637 79.6898 152.185 93.495Z" fill="url(#paint1_linear_54_173)"/>
</g>
<g filter="url(#filter3_ii_54_173)">
<path d="M57.0883 68.5417C59.9646 79.276 56.4222 94.3297 52.7421 105.512C50.0808 113.598 40.5052 116.164 34.1573 110.491C25.3792 102.648 14.7846 91.382 11.9083 80.6476C8.64525 68.4696 16.1139 55.8874 28.59 52.5444C41.0661 49.2015 53.8252 56.3637 57.0883 68.5417Z" fill="url(#paint2_linear_54_173)"/>
</g>
<g filter="url(#filter4_f_54_173)">
<path d="M55.1655 70.2539C57.7588 79.9324 54.5649 93.5053 51.2468 103.587C48.8472 110.878 40.2136 113.192 34.4901 108.077C26.5755 101.005 17.023 90.8475 14.4297 81.169C11.4876 70.189 18.2216 58.8444 29.4704 55.8303C40.7193 52.8161 52.2234 59.2738 55.1655 70.2539Z" fill="url(#paint3_linear_54_173)"/>
</g>
</g>
<defs>
<filter id="filter0_d_54_173" x="11.1428" y="17.8179" width="180.677" height="121.085" filterUnits="userSpaceOnUse" color-interpolation-filters="sRGB">
<feFlood flood-opacity="0" result="BackgroundImageFix"/>
<feColorMatrix in="SourceAlpha" type="matrix" values="0 0 0 0 0 0 0 0 0 0 0 0 0 0 0 0 0 0 127 0" result="hardAlpha"/>
<feOffset dx="10" dy="10"/>
<feGaussianBlur stdDeviation="5"/>
<feComposite in2="hardAlpha" operator="out"/>
<feColorMatrix type="matrix" values="0 0 0 0 0.870833 0 0 0 0 0.870833 0 0 0 0 0.870833 0 0 0 0.1 0"/>
<feBlend mode="normal" in2="BackgroundImageFix" result="effect1_dropShadow_54_173"/>
<feBlend mode="normal" in="SourceGraphic" in2="effect1_dropShadow_54_173" result="shape"/>
</filter>
<filter id="filter1_ii_54_173" x="53.1307" y="8.69391" width="127.814" height="119.333" filterUnits="userSpaceOnUse" color-interpolation-filters="sRGB">
<feFlood flood-opacity="0" result="BackgroundImageFix"/>
<feBlend mode="normal" in="SourceGraphic" in2="BackgroundImageFix" result="shape"/>
<feColorMatrix in="SourceAlpha" type="matrix" values="0 0 0 0 0 0 0 0 0 0 0 0 0 0 0 0 0 0 127 0" result="hardAlpha"/>
<feOffset dx="-9.12396" dy="-9.12396"/>
<feGaussianBlur stdDeviation="18.2479"/>
<feComposite in2="hardAlpha" operator="arithmetic" k2="-1" k3="1"/>
<feColorMatrix type="matrix" values="0 0 0 0 0 0 0 0 0 0 0 0 0 0 0 0 0 0 0.17 0"/>
<feBlend mode="normal" in2="shape" result="effect1_innerShadow_54_173"/>
<feColorMatrix in="SourceAlpha" type="matrix" values="0 0 0 0 0 0 0 0 0 0 0 0 0 0 0 0 0 0 127 0" result="hardAlpha"/>
<feOffset dx="9.12396" dy="9.12396"/>
<feGaussianBlur stdDeviation="9.12396"/>
<feComposite in2="hardAlpha" operator="arithmetic" k2="-1" k3="1"/>
<feColorMatrix type="matrix" values="0 0 0 0 1 0 0 0 0 1 0 0 0 0 1 0 0 0 0.43 0"/>
<feBlend mode="normal" in2="effect1_innerShadow_54_173" result="effect2_innerShadow_54_173"/>
</filter>
<filter id="filter2_f_54_173" x="53.3871" y="9.83994" width="126.16" height="118.513" filterUnits="userSpaceOnUse" color-interpolation-filters="sRGB">
<feFlood flood-opacity="0" result="BackgroundImageFix"/>
<feBlend mode="normal" in="SourceGraphic" in2="BackgroundImageFix" result="shape"/>
<feGaussianBlur stdDeviation="6.84297" result="effect1_foregroundBlur_54_173"/>
</filter>
<filter id="filter3_ii_54_173" x="2.01886" y="42.5991" width="65.2457" height="80.0671" filterUnits="userSpaceOnUse" color-interpolation-filters="sRGB">
<feFlood flood-opacity="0" result="BackgroundImageFix"/>
<feBlend mode="normal" in="SourceGraphic" in2="BackgroundImageFix" result="shape"/>
<feColorMatrix in="SourceAlpha" type="matrix" values="0 0 0 0 0 0 0 0 0 0 0 0 0 0 0 0 0 0 127 0" result="hardAlpha"/>
<feOffset dx="-9.12396" dy="-9.12396"/>
<feGaussianBlur stdDeviation="18.2479"/>
<feComposite in2="hardAlpha" operator="arithmetic" k2="-1" k3="1"/>
<feColorMatrix type="matrix" values="0 0 0 0 0 0 0 0 0 0 0 0 0 0 0 0 0 0 0.17 0"/>
<feBlend mode="normal" in2="shape" result="effect1_innerShadow_54_173"/>
<feColorMatrix in="SourceAlpha" type="matrix" values="0 0 0 0 0 0 0 0 0 0 0 0 0 0 0 0 0 0 127 0" result="hardAlpha"/>
<feOffset dx="9.12396" dy="9.12396"/>
<feGaussianBlur stdDeviation="9.12396"/>
<feComposite in2="hardAlpha" operator="arithmetic" k2="-1" k3="1"/>
<feColorMatrix type="matrix" values="0 0 0 0 1 0 0 0 0 1 0 0 0 0 1 0 0 0 0.43 0"/>
<feBlend mode="normal" in2="effect1_innerShadow_54_173" result="effect2_innerShadow_54_173"/>
</filter>
<filter id="filter4_f_54_173" x="0.0535669" y="41.4037" width="69.7466" height="83.1102" filterUnits="userSpaceOnUse" color-interpolation-filters="sRGB">
<feFlood flood-opacity="0" result="BackgroundImageFix"/>
<feBlend mode="normal" in="SourceGraphic" in2="BackgroundImageFix" result="shape"/>
<feGaussianBlur stdDeviation="6.84297" result="effect1_foregroundBlur_54_173"/>
</filter>
<linearGradient id="paint0_linear_54_173" x1="149.272" y1="13.5193" x2="80.9011" y2="124.615" gradientUnits="userSpaceOnUse">
<stop stop-color="#B65DE0"/>
<stop offset="1" stop-color="#3D41D7"/>
</linearGradient>
<linearGradient id="paint1_linear_54_173" x1="138.874" y1="24.3412" x2="136.838" y2="38.0986" gradientUnits="userSpaceOnUse">
<stop stop-color="white"/>
<stop offset="1" stop-color="white" stop-opacity="0"/>
</linearGradient>
<linearGradient id="paint2_linear_54_173" x1="16.1796" y1="53.8727" x2="51.3174" y2="109.188" gradientUnits="userSpaceOnUse">
<stop stop-color="#B65DE0"/>
<stop offset="1" stop-color="#3D41D7"/>
</linearGradient>
<linearGradient id="paint3_linear_54_173" x1="18.9799" y1="61.0377" x2="24.8097" y2="65.1277" gradientUnits="userSpaceOnUse">
<stop stop-color="white"/>
<stop offset="1" stop-color="white" stop-opacity="0"/>
</linearGradient>
</defs>
</svg>
